<svg width="261" height="39" viewBox="0 0 261 39" fill="none" xmlns="http://www.w3.org/2000/svg">
<path d="M0.492188 38V2.30664H8.06055V31.75H22.5381V38H0.492188ZM52.9824 24.3037C52.9824 26.5824 52.6732 28.6006 52.0547 30.3584C51.4525 32.1162 50.5654 33.6055 49.3936 34.8262C48.238 36.0306 46.8382 36.9421 45.1943 37.5605C43.5667 38.179 41.7275 38.4883 39.6768 38.4883C37.7562 38.4883 35.9902 38.179 34.3789 37.5605C32.7839 36.9421 31.3923 36.0306 30.2041 34.8262C29.0322 33.6055 28.1208 32.1162 27.4697 30.3584C26.835 28.6006 26.5176 26.5824 26.5176 24.3037C26.5176 21.2764 27.0547 18.7129 28.1289 16.6133C29.2031 14.5137 30.7331 12.9186 32.7188 11.8281C34.7044 10.7376 37.0726 10.1924 39.8232 10.1924C42.3786 10.1924 44.641 10.7376 46.6104 11.8281C48.596 12.9186 50.1504 14.5137 51.2734 16.6133C52.4128 18.7129 52.9824 21.2764 52.9824 24.3037ZM34.1104 24.3037C34.1104 26.0941 34.3057 27.5996 34.6963 28.8203C35.0869 30.041 35.6973 30.9606 36.5273 31.5791C37.3574 32.1976 38.4398 32.5068 39.7744 32.5068C41.0928 32.5068 42.1589 32.1976 42.9727 31.5791C43.8027 30.9606 44.4049 30.041 44.7793 28.8203C45.1699 27.5996 45.3652 26.0941 45.3652 24.3037C45.3652 22.4971 45.1699 20.9997 44.7793 19.8115C44.4049 18.6071 43.8027 17.7038 42.9727 17.1016C42.1426 16.4993 41.0602 16.1982 39.7256 16.1982C37.7562 16.1982 36.3239 16.8737 35.4287 18.2246C34.5498 19.5755 34.1104 21.6019 34.1104 24.3037ZM66.5811 0.0117188V8.84961C66.5811 9.875 66.5485 10.8923 66.4834 11.9014C66.4346 12.9105 66.3695 13.6917 66.2881 14.2451H66.5811C67.2972 13.1221 68.2738 12.1699 69.5107 11.3887C70.7477 10.5911 72.3509 10.1924 74.3203 10.1924C77.3802 10.1924 79.8623 11.3887 81.7666 13.7812C83.6709 16.1738 84.623 19.6813 84.623 24.3037C84.623 27.4124 84.1836 30.0247 83.3047 32.1406C82.4258 34.2402 81.1969 35.8271 79.6182 36.9014C78.0394 37.9593 76.2083 38.4883 74.125 38.4883C72.123 38.4883 70.5443 38.1302 69.3887 37.4141C68.2331 36.6979 67.2972 35.8923 66.5811 34.9971H66.0684L64.8232 38H59.1348V0.0117188H66.5811ZM71.9277 16.1494C70.6257 16.1494 69.5921 16.418 68.8271 16.9551C68.0622 17.4922 67.5007 18.2979 67.1426 19.3721C66.8008 20.4463 66.6136 21.8053 66.5811 23.4492V24.2549C66.5811 26.9079 66.9717 28.9424 67.7529 30.3584C68.5342 31.7581 69.9583 32.458 72.0254 32.458C73.5553 32.458 74.7679 31.75 75.6631 30.334C76.5745 28.918 77.0303 26.8753 77.0303 24.2061C77.0303 21.5368 76.5745 19.5267 75.6631 18.1758C74.7516 16.8249 73.5065 16.1494 71.9277 16.1494ZM101.957 10.1436C105.619 10.1436 108.427 10.9411 110.38 12.5361C112.333 14.1312 113.31 16.5563 113.31 19.8115V38H108.109L106.669 34.2891H106.474C105.692 35.2656 104.895 36.0632 104.081 36.6816C103.267 37.3001 102.331 37.7559 101.273 38.0488C100.215 38.3418 98.9297 38.4883 97.416 38.4883C95.8047 38.4883 94.3561 38.179 93.0703 37.5605C91.8008 36.9421 90.7998 35.998 90.0674 34.7285C89.335 33.4427 88.9688 31.8151 88.9688 29.8457C88.9688 26.9486 89.986 24.8164 92.0205 23.4492C94.055 22.0658 97.1068 21.3008 101.176 21.1543L105.912 21.0078V19.8115C105.912 18.3792 105.538 17.3294 104.789 16.6621C104.04 15.9948 102.999 15.6611 101.664 15.6611C100.346 15.6611 99.0518 15.8483 97.7822 16.2227C96.5127 16.597 95.2432 17.069 93.9736 17.6387L91.5078 12.6094C92.9564 11.8444 94.5758 11.2422 96.3662 10.8027C98.1729 10.3633 100.036 10.1436 101.957 10.1436ZM105.912 25.3535L103.031 25.4512C100.622 25.5163 98.946 25.9476 98.002 26.7451C97.0742 27.5426 96.6104 28.5924 96.6104 29.8945C96.6104 31.0339 96.944 31.8477 97.6113 32.3359C98.2786 32.8079 99.1494 33.0439 100.224 33.0439C101.819 33.0439 103.161 32.5719 104.252 31.6279C105.359 30.6839 105.912 29.3411 105.912 27.5996V25.3535ZM91.8252 7.75098C91.9229 6.44889 92.1589 5.32585 92.5332 4.38184C92.9076 3.42155 93.3958 2.6403 93.998 2.03809C94.6003 1.4196 95.2757 0.963867 96.0244 0.670898C96.7894 0.361654 97.6032 0.207031 98.4658 0.207031C99.1331 0.207031 99.7842 0.33724 100.419 0.597656C101.07 0.841797 101.705 1.13477 102.323 1.47656C102.958 1.81836 103.576 2.11947 104.179 2.37988C104.797 2.62402 105.399 2.74609 105.985 2.74609C106.474 2.74609 106.946 2.53451 107.401 2.11133C107.873 1.67188 108.215 1.02083 108.427 0.158203H112.064C111.869 2.72982 111.137 4.63411 109.867 5.87109C108.598 7.0918 107.117 7.70215 105.424 7.70215C104.757 7.70215 104.097 7.57194 103.446 7.31152C102.812 7.05111 102.177 6.75814 101.542 6.43262C100.924 6.09082 100.313 5.78971 99.7109 5.5293C99.1087 5.26888 98.5146 5.13867 97.9287 5.13867C97.4242 5.13867 96.9359 5.3584 96.4639 5.79785C96.0081 6.22103 95.6745 6.87207 95.4629 7.75098H91.8252ZM145.805 24.3037C145.805 26.5824 145.495 28.6006 144.877 30.3584C144.275 32.1162 143.388 33.6055 142.216 34.8262C141.06 36.0306 139.66 36.9421 138.017 37.5605C136.389 38.179 134.55 38.4883 132.499 38.4883C130.578 38.4883 128.812 38.179 127.201 37.5605C125.606 36.9421 124.215 36.0306 123.026 34.8262C121.854 33.6055 120.943 32.1162 120.292 30.3584C119.657 28.6006 119.34 26.5824 119.34 24.3037C119.34 21.2764 119.877 18.7129 120.951 16.6133C122.025 14.5137 123.555 12.9186 125.541 11.8281C127.527 10.7376 129.895 10.1924 132.646 10.1924C135.201 10.1924 137.463 10.7376 139.433 11.8281C141.418 12.9186 142.973 14.5137 144.096 16.6133C145.235 18.7129 145.805 21.2764 145.805 24.3037ZM126.933 24.3037C126.933 26.0941 127.128 27.5996 127.519 28.8203C127.909 30.041 128.52 30.9606 129.35 31.5791C130.18 32.1976 131.262 32.5068 132.597 32.5068C133.915 32.5068 134.981 32.1976 135.795 31.5791C136.625 30.9606 137.227 30.041 137.602 28.8203C137.992 27.5996 138.188 26.0941 138.188 24.3037C138.188 22.4971 137.992 20.9997 137.602 19.8115C137.227 18.6071 136.625 17.7038 135.795 17.1016C134.965 16.4993 133.882 16.1982 132.548 16.1982C130.578 16.1982 129.146 16.8737 128.251 18.2246C127.372 19.5755 126.933 21.6019 126.933 24.3037Z" fill="white"/>
<path d="M167.704 8.09277C166.256 8.09277 164.97 8.3776 163.847 8.94727C162.74 9.50065 161.804 10.3063 161.039 11.3643C160.29 12.4222 159.721 13.6999 159.33 15.1973C158.939 16.6947 158.744 18.3792 158.744 20.251C158.744 22.7738 159.053 24.9303 159.672 26.7207C160.307 28.4948 161.283 29.8538 162.602 30.7979C163.92 31.7256 165.621 32.1895 167.704 32.1895C169.153 32.1895 170.601 32.0267 172.05 31.7012C173.515 31.3757 175.102 30.9118 176.811 30.3096V36.6572C175.232 37.3083 173.677 37.7721 172.147 38.0488C170.618 38.3418 168.9 38.4883 166.996 38.4883C163.318 38.4883 160.29 37.7314 157.914 36.2178C155.554 34.6878 153.804 32.5557 152.665 29.8213C151.526 27.0706 150.956 23.8643 150.956 20.2021C150.956 17.5003 151.322 15.0264 152.055 12.7803C152.787 10.5342 153.861 8.58919 155.277 6.94531C156.693 5.30143 158.443 4.0319 160.526 3.13672C162.61 2.24154 165.002 1.79395 167.704 1.79395C169.478 1.79395 171.252 2.02181 173.026 2.47754C174.817 2.91699 176.526 3.52734 178.153 4.30859L175.712 10.4609C174.377 9.82617 173.035 9.27279 171.684 8.80078C170.333 8.32878 169.006 8.09277 167.704 8.09277ZM195.023 10.1436C198.686 10.1436 201.493 10.9411 203.446 12.5361C205.399 14.1312 206.376 16.5563 206.376 19.8115V38H201.176L199.735 34.2891H199.54C198.759 35.2656 197.961 36.0632 197.147 36.6816C196.334 37.3001 195.398 37.7559 194.34 38.0488C193.282 38.3418 191.996 38.4883 190.482 38.4883C188.871 38.4883 187.423 38.179 186.137 37.5605C184.867 36.9421 183.866 35.998 183.134 34.7285C182.401 33.4427 182.035 31.8151 182.035 29.8457C182.035 26.9486 183.052 24.8164 185.087 23.4492C187.121 22.0658 190.173 21.3008 194.242 21.1543L198.979 21.0078V19.8115C198.979 18.3792 198.604 17.3294 197.855 16.6621C197.107 15.9948 196.065 15.6611 194.73 15.6611C193.412 15.6611 192.118 15.8483 190.849 16.2227C189.579 16.597 188.31 17.069 187.04 17.6387L184.574 12.6094C186.023 11.8444 187.642 11.2422 189.433 10.8027C191.239 10.3633 193.103 10.1436 195.023 10.1436ZM198.979 25.3535L196.098 25.4512C193.689 25.5163 192.012 25.9476 191.068 26.7451C190.141 27.5426 189.677 28.5924 189.677 29.8945C189.677 31.0339 190.01 31.8477 190.678 32.3359C191.345 32.8079 192.216 33.0439 193.29 33.0439C194.885 33.0439 196.228 32.5719 197.318 31.6279C198.425 30.6839 198.979 29.3411 198.979 27.5996V25.3535ZM229.301 10.1924C229.675 10.1924 230.106 10.2168 230.595 10.2656C231.099 10.2982 231.506 10.347 231.815 10.4121L231.254 17.3945C231.01 17.3132 230.66 17.2562 230.204 17.2236C229.765 17.1748 229.382 17.1504 229.057 17.1504C228.096 17.1504 227.16 17.2725 226.249 17.5166C225.354 17.7607 224.548 18.1595 223.832 18.7129C223.116 19.25 222.546 19.9661 222.123 20.8613C221.716 21.7402 221.513 22.8226 221.513 24.1084V38H214.066V10.7051H219.706L220.805 15.2949H221.171C221.708 14.3672 222.375 13.5208 223.173 12.7559C223.987 11.9746 224.906 11.3561 225.932 10.9004C226.973 10.4284 228.096 10.1924 229.301 10.1924ZM248.026 10.1924C250.549 10.1924 252.722 10.6807 254.545 11.6572C256.368 12.6175 257.776 14.0173 258.769 15.8564C259.761 17.6956 260.258 19.9417 260.258 22.5947V26.208H242.655C242.737 28.3076 243.363 29.9596 244.535 31.1641C245.723 32.3522 247.367 32.9463 249.467 32.9463C251.208 32.9463 252.803 32.7673 254.252 32.4092C255.701 32.0511 257.19 31.514 258.72 30.7979V36.5596C257.369 37.2269 255.953 37.7152 254.472 38.0244C253.007 38.3337 251.225 38.4883 249.125 38.4883C246.391 38.4883 243.965 37.9837 241.85 36.9746C239.75 35.9655 238.098 34.4274 236.894 32.3604C235.705 30.2933 235.111 27.6891 235.111 24.5479C235.111 21.3577 235.648 18.7048 236.723 16.5889C237.813 14.4567 239.327 12.8617 241.264 11.8037C243.201 10.7295 245.455 10.1924 248.026 10.1924ZM248.075 15.4902C246.627 15.4902 245.422 15.9541 244.462 16.8818C243.518 17.8096 242.973 19.2663 242.826 21.252H253.275C253.259 20.1452 253.056 19.1605 252.665 18.2979C252.291 17.4352 251.721 16.7516 250.956 16.2471C250.207 15.7425 249.247 15.4902 248.075 15.4902Z" fill="#FFC421"/>
</svg>
